PathFileType	4	(X/Y/Z)	..\data\2015007\dynamic\2015007_C4_03.trc
DataRate	CameraRate	NumFrames	NumMarkers	Units	OrigDataRate	OrigDataStartFrame	OrigNumFrames
100.000000	100.000000	4	52	mm	100.000000	0	166
Frame#	Time	L_IAS			L_IPS			R_IPS			R_IAS			L_FTC			L_FLE			L_FME			L_FAX			L_TTC			L_FAL			L_TAM			L_FCC			L_FM1			L_FM2			L_FM5			R_FTC			R_FLE			R_FME			R_FAX			R_TTC			R_FAL			R_TAM			R_FCC			R_FM1			R_FM2			R_FM5			CV7			TV10			SXS			SJN			L_SIA			L_SRS			L_SAA			L_SAE			L_HLE			L_HME			L_UOA			L_RSP			L_UHE			L_HM2			L_HM5			R_SIA			R_SRS			R_SAA			R_SAE			R_HLE			R_HME			R_UOA			R_RSP			R_UHE			R_HM2			R_HM5			
		X1	Y1	Z1	X2	Y2	Z2	X3	Y3	Z3	X4	Y4	Z4	X5	Y5	Z5	X6	Y6	Z6	X7	Y7	Z7	X8	Y8	Z8	X9	Y9	Z9	X10	Y10	Z10	X11	Y11	Z11	X12	Y12	Z12	X13	Y13	Z13	X14	Y14	Z14	X15	Y15	Z15	X16	Y16	Z16	X17	Y17	Z17	X18	Y18	Z18	X19	Y19	Z19	X20	Y20	Z20	X21	Y21	Z21	X22	Y22	Z22	X23	Y23	Z23	X24	Y24	Z24	X25	Y25	Z25	X26	Y26	Z26	X27	Y27	Z27	X28	Y28	Z28	X29	Y29	Z29	X30	Y30	Z30	X31	Y31	Z31	X32	Y32	Z32	X33	Y33	Z33	X34	Y34	Z34	X35	Y35	Z35	X36	Y36	Z36	X37	Y37	Z37	X38	Y38	Z38	X39	Y39	Z39	X40	Y40	Z40	X41	Y41	Z41	X42	Y42	Z42	X43	Y43	Z43	X44	Y44	Z44	X45	Y45	Z45	X46	Y46	Z46	X47	Y47	Z47	X48	Y48	Z48	X49	Y49	Z49	X50	Y50	Z50	X51	Y51	Z51	X52	Y52	Z52	

1	0	-1178.189086914063	889.4835205078127	74.4921951293944	-1392.876831054688	900.2068481445315	165.7806243896483	-1383.351684570313	899.4473876953127	268.2176818847655	-1163.4970703125	890.225280761719	325.4577026367186	-1282.740112304688	791.9384765625002	22.10939407348618	-1339.355834960938	424.5857543945314	90.88326263427719	-1345.867553710938	414.1011962890626	213.0469512939452	-1370.652099609375	372.0957641601563	85.950355529785	-1323.297485351563	350.3154602050782	138.2963104248045	-1483.813720703125	71.16259002685548	137.0805053710936	-1464.824951171875	73.10361480712892	219.1212310791014	-1536.947265625	28.7491683959961	188.9780273437498	-1360.722900390625	17.23550796508789	190.5823669433592	-1358.762817382813	28.09673118591309	139.8142089843749	-1417.460327148438	13.60801982879639	103.0326232910155	-1242.924072265625	786.8911743164065	391.8811035156249	-1084.403198242188	447.2944946289064	346.6379089355468	-1092.948852539063	420.0713195800782	219.4080657958984	-1077.6064453125	394.5284423828126	355.7766418457031	-1025.738037109375	403.0035095214845	308.7837829589843	-967.922058105469	80.34673309326173	339.2189941406249	-941.0284423828127	105.8511047363282	261.4673156738281	-982.642272949219	19.66146850585938	283.1505737304687	-822.1011352539065	93.16484832763673	284.8351135253906	-833.5896606445315	97.9704513549805	324.7950744628906	-869.4336547851565	55.616512298584	370.8140869140624	-1291.109497070313	1391.200561523438	225.5444946289061	-1389.682739257813	1155.479370117188	198.4905395507811	-1120.768798828125	1058.3955078125	203.589126586914	-1176.740112304688	1309.924194335938	217.1912841796874	-1385.3525390625	1205.836303710938	115.8905944824217	-1343.9560546875	1334.265747070313	114.2852172851561	-1296.693359375	1340.496704101563	52.58730316162095	-1246.098999023438	1348.748291015625	44.05968856811509	-1214.341552734375	1042.823852539063	-48.4806976318361	-1247.510986328125	1023.565368652344	20.24292755126938	-1238.95654296875	1011.526977539063	-26.60718727111832	-1060.587646484375	856.5473632812502	-16.31301116943373	-1118.345947265625	835.2401123046877	-68.49687957763688	-1018.339294433594	807.0905761718752	-27.37823677063001	-1098.01171875	778.249938964844	-73.68085479736342	-1393.786376953125	1191.784057617188	280.5314636230468	-1350.970458984375	1314.690551757813	295.5536499023436	-1302.279541015625	1313.1220703125	369.7086486816405	-1256.2041015625	1316.494018554688	388.9808959960937	-1303.846069335938	1005.20751953125	455.0674743652343	-1338.409545898438	997.5560302734377	390.5350036621093	-1333.5712890625	978.2933349609377	437.0988159179687	-1237.411376953125	783.4633789062502	453.9670104980468	-1285.862060546875	788.960144042969	492.1635742187499	-1215.767211914063	706.4027099609376	467.9479064941406	-1287.423461914063	721.4084472656251	507.4526367187499	
2	0.01	-1167.301635742188	888.2520141601565	75.13909149169909	-1381.629272460938	899.2532348632815	167.3744964599608	-1371.789794921875	898.4863891601565	269.7127380371093	-1151.839599609375	889.092956542969	326.3951110839843	-1272.422729492188	791.0052490234377	23.27554702758774	-1330.661743164063	423.837371826172	91.77811431884751	-1336.650146484375	413.3300170898439	213.9306335449218	-1362.857177734375	371.7770690917969	86.92429351806625	-1315.630493164063	349.2175903320313	139.1190185546874	-1482.7783203125	73.27026367187501	136.9068908691405	-1463.75146484375	74.73250579833986	219.1913604736327	-1536.806640625	31.90380668640137	188.7912445068358	-1360.416748046875	17.30478668212891	190.5332183837889	-1358.607543945313	28.11626243591309	139.7336273193358	-1417.3828125	13.70682430267334	103.1855697631835	-1231.165405273438	785.9071044921877	393.0109863281249	-1072.453369140625	446.3608398437501	346.8686218261718	-1080.31689453125	419.8109130859376	219.5061798095702	-1065.84033203125	393.5448608398439	355.7561035156249	-1014.356323242188	401.678436279297	308.7750854492187	-959.861999511719	78.78151702880861	338.6915893554687	-933.0523681640627	103.8990707397461	260.7705383300781	-975.5362548828127	18.37242317199707	282.8333740234374	-814.2188720703127	89.74855041503908	283.6272583007812	-825.5593261718752	94.8294143676758	323.6436462402343	-861.673278808594	53.0376434326172	369.7951660156249	-1279.921752929688	1390.074462890625	226.6390533447264	-1378.190673828125	1154.200439453125	199.4364013671874	-1110.0244140625	1057.233520507813	204.834014892578	-1165.484741210938	1308.80712890625	218.3908538818359	-1374.16796875	1204.682006835938	116.9247436523436	-1332.652954101563	1333.185424804688	115.4093170166014	-1285.357666015625	1339.27880859375	53.70908737182603	-1234.69384765625	1347.495727539063	45.23116683959947	-1202.381103515625	1041.43408203125	-47.2953720092775	-1235.865844726563	1022.220397949219	21.3999748229979	-1227.104614257813	1010.116516113281	-25.39682579040543	-1047.912353515625	856.4169921875002	-13.87752437591566	-1105.270751953125	834.4185791015627	-66.30445861816422	-1005.021545410156	807.354919433594	-24.51461029052748	-1084.171264648438	777.6716308593752	-71.05701446533217	-1382.611938476563	1190.614990234375	281.5692443847655	-1339.807495117188	1313.64208984375	296.653839111328	-1291.085815429688	1312.049194335938	370.8931579589843	-1245.118286132813	1315.348388671875	390.1391296386718	-1293.521484375	1004.214660644531	456.0582275390624	-1327.986450195313	996.5634765625002	391.4593505859374	-1323.326049804688	977.491882324219	437.9580078124999	-1228.834716796875	782.0180664062502	455.5440673828124	-1277.195678710938	788.0005493164065	493.6551513671874	-1207.842407226563	704.7369995117189	469.6617736816406	-1279.372314453125	720.4767456054689	509.0781249999999	
3	0.02	-1156.200439453125	887.1570434570315	75.85765838623034	-1370.14990234375	898.497985839844	169.0833740234374	-1359.958374023438	897.7537231445315	271.3174743652343	-1139.954711914063	888.1853027343752	327.3710632324218	-1261.86865234375	790.1829223632815	24.59888076782212	-1321.398559570313	423.1699523925782	92.6188812255858	-1326.950927734375	412.571746826172	214.7793731689452	-1354.534912109375	371.5788269042969	87.82984161376937	-1307.500854492188	348.1150817871094	139.8741912841795	-1481.558959960938	75.79430389404298	136.543014526367	-1462.483764648438	76.74916076660158	219.0619354248046	-1536.529541015625	35.71057891845704	188.4111938476561	-1360.230102539063	17.30990219116211	190.5228576660155	-1358.552001953125	28.06828880310059	139.6704711914061	-1417.331176757813	13.81882667541504	103.3050231933592	-1219.149047851563	785.198913574219	394.2680969238281	-1060.527709960938	445.530242919922	347.1174926757812	-1067.599243164063	419.7462768554689	219.6245574951171	-1054.26318359375	392.5969543457032	355.7206420898437	-1003.1025390625	400.1933593750001	308.7997436523437	-953.5734863281252	76.79290771484376	338.1475830078124	-926.7048950195315	101.3272552490235	260.0524291992187	-970.5865478515627	16.87593650817871	282.5172119140624	-808.1543579101565	85.0314407348633	282.4296264648437	-819.330993652344	90.42107391357423	322.5018310546874	-855.954284667969	49.46327209472658	368.7310791015624	-1268.62158203125	1389.142944335938	227.8553771972655	-1366.527221679688	1153.08349609375	200.4793090820311	-1099.0205078125	1056.321533203125	206.150177001953	-1154.097900390625	1307.925048828125	219.6958618164062	-1362.811157226563	1203.6875	118.0512084960936	-1321.22314453125	1332.277221679688	116.6497879028319	-1273.9072265625	1338.28515625	54.95792770385728	-1223.194091796875	1346.477172851563	46.50226593017564	-1190.737548828125	1040.258911132813	-46.03735733032242	-1224.482543945313	1021.109802246094	22.65672683715806	-1215.556762695313	1008.914306640625	-24.09167098999039	-1035.67626953125	856.3013916015627	-11.43906402587903	-1092.763916015625	833.664733886719	-64.08655548095717	-992.2129516601565	807.620300292969	-21.6858940124513	-1070.89599609375	777.1567993164065	-68.37220001220717	-1371.256225585938	1189.6162109375	282.718292236328	-1328.504760742188	1312.751220703125	297.8642578124999	-1279.761352539063	1311.156372070313	372.1753540039061	-1233.89990234375	1314.411743164063	391.4101562499999	-1282.990600585938	1003.38525390625	457.0823669433593	-1317.340942382813	995.7495117187502	392.4227905273437	-1312.855590820313	976.8574218750002	438.8515624999999	-1219.964111328125	780.7835693359377	457.0964050292968	-1268.236083984375	787.2168579101565	495.1175842285156	-1199.582885742188	703.2893676757814	471.3298950195312	-1270.998901367188	719.7166137695314	510.6484069824218	
4	0.03	-1144.862426757813	886.2278442382815	76.67330169677722	-1358.432373046875	897.9342041015627	170.8835601806639	-1347.868041992188	897.2590942382815	273.0176696777343	-1127.850830078125	887.540222167969	328.3916015624999	-1251.036743164063	789.4650878906252	26.07579231262192	-1311.494018554688	422.5797424316407	93.38565063476548	-1316.718872070313	411.8177185058595	215.5724487304686	-1345.615966796875	371.5078735351563	88.64633178710922	-1298.8544921875	346.9904174804688	140.531036376953	-1480.072387695313	78.78308868408205	136.0147705078124	-1460.914794921875	79.19073486328126	218.7292022705077	-1535.994750976563	40.25277709960938	187.8854980468748	-1360.205932617188	17.22899246215821	190.5698852539061	-1358.6318359375	27.93389129638673	139.6475219726561	-1417.326904296875	13.98887443542481	103.4092788696288	-1206.88623046875	784.7805175781252	395.6407470703124	-1048.684204101563	444.8229980468751	347.4067993164062	-1054.947998046875	419.8461303710939	219.8083496093749	-1042.878540039063	391.7137145996095	355.7136230468749	-991.9877929687502	398.6231689453126	308.8602600097656	-948.6755981445315	74.52658843994142	337.6398620605468	-921.656921386719	98.31694793701175	259.3601379394531	-967.3760375976565	15.31794357299805	282.2567443847656	-803.547546386719	79.30195617675783	281.2409057617187	-814.527770996094	85.00330352783205	321.3757324218749	-851.8626098632815	45.12063217163087	367.6459350585937	-1257.211059570313	1388.418579101563	229.190933227539	-1354.691284179688	1152.142333984375	201.6291656494139	-1087.713623046875	1055.682006835938	207.5339813232421	-1142.5830078125	1307.293334960938	221.102325439453	-1351.280639648438	1202.863403320313	119.2716751098631	-1309.671752929688	1331.55224609375	118.0041580200194	-1262.346435546875	1337.524658203125	56.3263778686522	-1211.604614257813	1345.7080078125	47.86915206909165	-1179.419921875	1039.326049804688	-44.70363998413101	-1213.350219726563	1020.247802734375	24.01211547851548	-1204.310913085938	1007.938537597656	-22.69332695007339	-1023.885803222656	856.1929321289065	-9.012167930603155	-1080.829345703125	832.9871826171877	-61.85535812377945	-979.9337158203127	807.8726196289065	-18.91605377197278	-1058.21337890625	776.703796386719	-65.65210723876967	-1359.715209960938	1188.797973632813	283.9806823730468	-1317.059936523438	1312.026611328125	299.1833496093749	-1268.304809570313	1310.453369140625	373.5519714355468	-1222.5439453125	1313.6953125	392.7893066406249	-1272.258422851563	1002.732971191406	458.1402282714843	-1306.47412109375	995.1306152343752	393.4244689941406	-1302.163452148438	976.4033813476565	439.7844848632812	-1210.779296875	779.776306152344	458.6212158203124	-1258.973266601563	786.6194458007815	496.5487060546874	-1190.969970703125	702.0750122070314	472.9456787109374	-1262.288696289063	719.1359252929689	512.1571044921875	
